<svg width="115" height="34" viewBox="0 0 115 34" fill="none" xmlns="http://www.w3.org/2000/svg">
  <path fill-rule="evenodd" clip-rule="evenodd"
    d="M18.694 35.987C18.2315 36.0045 17.7685 36.0045 17.306 35.987H18.694ZM29.113 32.161L29.197 32.094V25.048C29.1429 22.268 28.0568 19.6076 26.1499 17.5839C24.2431 15.5603 21.6518 14.3181 18.88 14.099L18.872 14.067C18.702 13.411 18.512 12.637 18.339 11.819C18.529 11.845 18.719 11.866 18.91 11.879C20.0317 11.9931 21.1622 11.7751 22.161 11.252C23.711 10.376 24.295 8.581 23.499 7.167C22.83 5.981 21.294 5.245 19.583 5.325C18.017 5.393 16.768 6.13 16.243 7.29C15.9964 7.87638 15.8991 8.51479 15.96 9.148C15.5807 8.98126 15.2078 8.80047 14.842 8.606L14.656 8.509L13.758 10.202L13.948 10.299C14.698 10.702 15.478 11.044 16.281 11.324C16.48 12.382 16.714 13.364 16.903 14.118C14.1725 14.3862 11.6353 15.6472 9.7729 17.6619C7.91045 19.6766 6.85224 22.3048 6.799 25.048V32.091C2.656 28.793 0 23.707 0 18C0 8.059 8.059 0 18 0C27.941 0 36 8.059 36 18C36 23.747 33.306 28.866 29.113 32.161ZM21.213 9.588C20.543 9.919 19.793 10.051 19.05 9.969C18.6883 9.94142 18.3291 9.88795 17.975 9.809C17.945 9.622 17.92 9.436 17.898 9.245C17.8217 8.85411 17.8556 8.44971 17.996 8.077C18.254 7.505 19.029 7.273 19.668 7.23C20.616 7.188 21.522 7.552 21.827 8.098C22.132 8.644 21.831 9.228 21.213 9.588ZM13.67 25.451C13.67 25.9316 13.4791 26.3925 13.1393 26.7323C12.7995 27.0721 12.3386 27.263 11.858 27.263C11.3774 27.263 10.9165 27.0721 10.5767 26.7323C10.2369 26.3925 10.046 25.9316 10.046 25.451C10.046 24.9704 10.2369 24.5095 10.5767 24.1697C10.9165 23.8299 11.3774 23.639 11.858 23.639C12.3386 23.639 12.7995 23.8299 13.1393 24.1697C13.4791 24.5095 13.67 24.9704 13.67 25.451ZM26.01 25.451C26.01 25.689 25.9631 25.9246 25.8721 26.1444C25.781 26.3643 25.6475 26.564 25.4793 26.7323C25.311 26.9005 25.1113 27.034 24.8914 27.1251C24.6716 27.2161 24.436 27.263 24.198 27.263C23.96 27.263 23.7244 27.2161 23.5046 27.1251C23.2847 27.034 23.085 26.9005 22.9167 26.7323C22.7485 26.564 22.615 26.3643 22.5239 26.1444C22.4329 25.9246 22.386 25.689 22.386 25.451C22.3971 24.9779 22.5928 24.528 22.9314 24.1973C23.2699 23.8667 23.7243 23.6816 24.1975 23.6816C24.6707 23.6816 25.1251 23.8667 25.4636 24.1973C25.8021 24.528 25.9989 24.9779 26.01 25.451ZM19.05 29.362H17.005V33.144C17.159 33.163 17.315 33.172 17.471 33.172H18.576C18.735 33.172 18.893 33.162 19.05 33.142V29.362ZM20.126 32.842V29.362H22.386C22.3858 30.0984 22.1722 30.819 21.7711 31.4366C21.3701 32.0541 20.7987 32.5423 20.126 32.842ZM13.665 29.362H15.93V32.847C15.2546 32.5485 14.6805 32.0603 14.2775 31.4416C13.8745 30.8229 13.66 30.1004 13.66 29.362H13.665Z"
    fill="white" />
  <path
    d="M51.74 23.184L49.64 28.056H45.776L54.652 8.344H58.292L67.196 28.056H63.276L61.428 23.744C60.812 23.931 60.168 24.024 59.496 24.024C58.786 24.024 58.161 23.949 57.62 23.8C57.0227 23.6116 56.4342 23.3967 55.856 23.156C55.654 23.0641 55.4485 22.98 55.24 22.904C55.0435 22.8135 54.8366 22.7477 54.624 22.708C54.3511 22.6292 54.068 22.5914 53.784 22.596C53.411 22.596 53.047 22.652 52.692 22.764C52.3561 22.8573 52.0354 22.9988 51.74 23.184ZM60.196 20.86L56.444 12.152L53.28 19.544C54.008 19.488 54.708 19.544 55.38 19.712C55.697 19.805 55.987 19.908 56.248 20.02C56.528 20.113 56.798 20.216 57.06 20.328C57.247 20.403 57.424 20.478 57.592 20.552C57.76 20.627 57.928 20.682 58.096 20.72C58.749 20.925 59.449 20.972 60.196 20.86ZM69.269 28V7.224H72.769V28H69.269ZM77.362 28V13.048H80.862V28H77.362ZM79.126 10.584C78.473 10.584 77.932 10.379 77.502 9.968C77.3034 9.77583 77.1463 9.54501 77.0404 9.28978C76.9344 9.03455 76.8819 8.76032 76.886 8.484C76.886 7.887 77.092 7.392 77.502 7C77.932 6.59 78.473 6.384 79.126 6.384C79.78 6.384 80.312 6.58 80.722 6.972C81.152 7.345 81.366 7.822 81.366 8.4C81.366 9.016 81.161 9.539 80.75 9.968C80.34 10.378 79.798 10.584 79.126 10.584ZM91.084 28.196C89.442 28.196 88.172 27.776 87.276 26.936C86.38 26.077 85.932 24.817 85.932 23.156V9.744H89.432V23.072C89.432 23.782 89.609 24.332 89.964 24.724C90.338 25.116 90.851 25.312 91.504 25.312C92.288 25.312 92.942 25.107 93.464 24.696L94.444 27.188C94.034 27.524 93.529 27.776 92.932 27.944C92.3305 28.1126 91.7087 28.1974 91.084 28.196ZM83.468 15.96V13.16H93.436V15.96H83.468ZM115.327 15.484C114.021 16.287 112.751 16.828 111.519 17.108C111.538 17.967 111.51 18.863 111.435 19.796C111.361 20.711 111.174 21.626 110.875 22.54C110.638 23.332 110.289 24.0862 109.839 24.78C109.424 25.455 108.904 26.0599 108.299 26.572C107.696 27.0794 107.016 27.486 106.283 27.776C105.537 28.056 104.725 28.196 103.847 28.196C103.184 28.1972 102.524 28.1029 101.887 27.916C101.274 27.7122 100.691 27.4299 100.151 27.076C99.6101 26.703 99.1206 26.2605 98.695 25.76C98.2845 25.2375 97.9628 24.651 97.743 24.024C97.4894 23.349 97.3293 22.6424 97.267 21.924C97.231 21.2806 97.2124 20.6364 97.211 19.992L97.239 13.048L100.711 13.076L100.683 20.02C100.683 20.505 100.693 20.99 100.711 21.476C100.73 21.961 100.814 22.4 100.963 22.792C101.18 23.3803 101.583 23.8817 102.111 24.22C102.671 24.556 103.259 24.724 103.875 24.724C104.361 24.724 104.799 24.64 105.191 24.472C105.583 24.285 105.929 24.052 106.227 23.772C106.545 23.473 106.815 23.128 107.039 22.736C107.263 22.344 107.441 21.933 107.571 21.504C107.777 20.8489 107.909 20.1726 107.963 19.488C108.038 18.778 108.066 18.088 108.047 17.416C107.155 17.3978 106.269 17.2565 105.415 16.996C104.575 16.735 103.857 16.24 103.259 15.512C102.727 14.8977 102.395 14.1359 102.307 13.328C102.232 12.5085 102.388 11.6844 102.755 10.948C103.129 10.201 103.661 9.632 104.351 9.24C105.033 8.83135 105.826 8.64541 106.619 8.708C107.238 8.73538 107.843 8.90803 108.383 9.212C108.925 9.492 109.391 9.856 109.783 10.304C110.175 10.752 110.493 11.265 110.735 11.844C110.997 12.404 111.174 12.983 111.267 13.58C111.643 13.4859 112.009 13.3546 112.359 13.188C112.733 13.001 113.115 12.787 113.507 12.544L115.327 15.484ZM105.639 13.356C105.882 13.636 106.227 13.841 106.675 13.972C107.142 14.084 107.618 14.159 108.103 14.196C108.041 13.9498 107.966 13.7068 107.879 13.468C107.788 13.2111 107.666 12.9666 107.515 12.74C107.373 12.5229 107.193 12.3332 106.983 12.18C106.785 12.0149 106.54 11.9168 106.283 11.9H106.227C105.929 11.9 105.714 12.05 105.583 12.348C105.546 12.385 105.499 12.516 105.443 12.74C105.406 12.945 105.471 13.15 105.639 13.356Z"
    fill="#FFFDEA" />
</svg>
